<svg xmlns="http://www.w3.org/2000/svg" xml:space="preserve" width="715" height="225" style="clip-rule:evenodd;fill-rule:evenodd;image-rendering:optimizeQuality;shape-rendering:geometricPrecision;text-rendering:geometricPrecision" viewBox="0 0 20178.888 6350.002"><g style="clip-rule:evenodd;fill-rule:evenodd;image-rendering:optimizeQuality;shape-rendering:geometricPrecision;text-rendering:geometricPrecision"><path d="M9971.548 556.847h167l397 606v-606h175v922h-168l-396-605v605h-175zm-509-318h202l-229 246h-123zm-36 467c-85 0-156 29-214 89-58 59-87 134-87 226 0 102 36 182 109 242q85.5 69 195 69c83 0 154-30 212-90s88-134 88-222-30-162-89-223c-58-61-130-91-214-91m3-172q195 0 336 141 141 142.5 141 345c0 135-46 249-139 342s-205 140-337 140c-139 0-253-48-345-144-91-95-137-209-137-341 0-88 21-169 64-243 42-74 101-132 175-176 75-43 156-64 242-64m-705 23h175v922h-175zm-38 161-123 117q-126-132-282-132c-89 0-163 30-224 90-60 61-90 135-90 223 0 61 13 116 40 163 27 48 65 85 113 113 49 27 104 40 164 40 51 0 97-9 139-28 43-19 89-54 140-104l119 125c-68 66-132 112-193 138s-130 39-208 39c-143 0-261-46-352-137-91-90-137-207-137-349 0-92 21-173 63-245 41-71 101-129 178-172 78-44 161-65 251-65 76 0 149 16 220 48 70 32 131 77 182 136m-1324 84-125 317h249zm-89-245h177l355 922h-183l-72-190h-378l-74 190h-182zm-809 0h510v173h-168v749h-179v-749h-163zm-636 0h176v596c0 52 5 88 14 109s23 38 44 51 46 19 75 19c31 0 58-7 80-21 23-14 38-32 47-54q12-33 12-126v-574h176v549c0 93-5 157-15 193-11 36-31 71-60 104q-43.5 51-102 75c-38 16-83 24-134 24-67 0-125-16-174-46-50-31-85-69-107-116-21-46-32-124-32-234zm-436 361h56c44 0 75-4 92-10s31-17 41-31c10-15 15-32 15-53q0-54-42-78c-20-12-58-19-113-19h-49zm-175-361h186c101 0 174 9 218 27 45 19 80 49 106 91 25 41 38 91 38 149 0 65-17 118-51 161-33 43-79 72-137 89-34 10-96 14-185 14v391h-175zm-268 0h174v922h-174zm-608 169v582h81c80 0 138-9 174-28 37-18 66-49 89-93 23-43 35-97 35-160 0-98-28-174-82-228-50-49-129-73-238-73zm-175-169h208c134 0 233 16 299 50 65 33 118 87 161 162 42 74 63 162 63 262q0 106.5-36 195c-23 60-56 109-97 149q-63 58.5-135 81c-49 15-132 23-252 23h-211zm5984 1034h566l-334 762h312v172h-571l331-759h-304zm-502 151c-86 0-158 30-217 90-58 60-88 136-88 229 0 103 37 185 111 245 58 47 123 71 198 71 84 0 155-31 214-92s89-136 89-225-30-164-90-226c-59-62-131-92-217-92m3-175c132 0 246 48 341 144s142 212 142 350c0 136-46 251-140 346q-141 141-342 141c-140 0-256-48-349-145s-139-212-139-346c0-89 21-171 65-246 43-75 102-134 178-178 75-44 157-66 244-66m-729 24h178v620q0 147-24 207c-15 40-41 72-77 95-36 24-79 35-129 35-102 0-190-45-262-135l128-120c28 32 52 54 72 65s39 16 57 16c19 0 33-8 43-24 9-16 14-51 14-106zm-715 248-127 322h253zm-90-248h179l360 934h-185l-73-193h-383l-75 193h-185zm-914 172v589h82c81 0 140-9 177-28 36-19 66-50 89-94 24-44 35-98 35-163 0-99-27-176-83-231-50-49-130-73-240-73zm-177-172h210c136 0 237 17 303 50 66 34 120 89 163 164 43 76 64 165 64 266q0 108-36 198c-24 61-57 111-99 151-42 39-88 67-137 82s-134 23-255 23h-213zm-485 248-126 322h252zm-90-248h180l359 934h-185l-73-193h-383l-74 193h-185zm-760 525v240h45c75 0 125-9 151-28q39-28.5 39-81c0-41-15-72-46-96-30-23-81-35-152-35zm0-356v198h39c45 0 78-9 99-28 22-18 32-43 32-74 0-30-10-53-30-70-21-17-52-26-93-26zm-177 765v-934h147c86 0 148 5 188 16 56 15 101 43 134 83s50 88 50 142c0 36-8 68-23 97s-39 57-73 82c57 27 98 60 124 100 27 40 40 87 40 142 0 52-14 100-41 143-28 43-63 76-106 97s-102 32-177 32zm-784-686h375v128h-245v123h245v126h-245v181h245v128h-375zm-463 126v433h61c60 0 103-7 130-21 27-13 49-37 66-69s25-72 25-120c0-72-20-129-61-169-36-36-95-54-176-54zm-130-126h155c100 0 174 12 223 37 48 24 88 65 119 120 32 56 47 121 47 195 0 53-8 102-26 146-17 44-42 81-73 111-31 29-64 49-100 60s-99 17-187 17h-158z" style="fill:#000" transform="translate(964.593 801.513)scale(1.70295)"/><path d="M52.548 1841.847c978-712 2292-860 3393-340 257 121-45 520-259 403-749-409-2127-453-3082 13-95 47-152-2-52-76m329 411c774-498 1836-585 2683-161 182 91-42 387-219 299-692-344-1722-396-2442-72-95 42-124 0-22-66m290 451c581-400 1407-481 2057-159 182 90-14 296-144 230-535-269-1350-301-1895-33-45 22-70-2-18-38m2339-1606c-171 0-309-138-309-308s138-308 309-308c170 0 308 138 308 308s-138 308-308 308m-2477-1c171 0 309-138 309-308s-138-308-309-308c-170 0-308 138-308 308s138 308 308 308m1238-250c234 0 424-190 424-424 0-233-190-423-424-423-233 0-423 190-423 423 0 234 190 424 423 424" style="fill:#c32b21;fill-opacity:1;fill-rule:nonzero" transform="translate(964.593 801.513)scale(1.70295)"/></g></svg>